Coordinates
version=1
nRows=32
nColumns=22
inDegrees=yes

Units are S.I. units (second, meters, Newtons, ...)
If the header above contains a line with 'inDegrees', this indicates whether rotational values are in degrees (yes) or radians (no).

endheader
time	pelvis_tilt	pelvis_list	pelvis_rotation	pelvis_tx	pelvis_ty	pelvis_tz	hip_flexion_r	hip_adduction_r	hip_rotation_r	knee_angle_r	ankle_angle_r	subtalar_angle_r	hip_flexion_l	hip_adduction_l	hip_rotation_l	knee_angle_l	ankle_angle_l	subtalar_angle_l	lumbar_extension	lumbar_bending	lumbar_rotation
      0.01000000	      2.41820188	      3.46295499	    176.84655104	      0.09700341	      1.01700088	      0.93636417	     -0.01805819	      1.53810735	     -6.46605217	     -9.49491459	      9.52839610	      0.75049151	     -2.07878333	     -5.00090213	    -14.31900281	     -7.26605408	     11.56172388	     -0.18645026	     -2.64209174	      0.84633328	     -1.11289047
      0.02000000	      2.42512367	      3.44354037	    176.85091652	      0.09693050	      1.01699737	      0.93656533	     -0.03609291	      1.50302847	     -6.47582651	     -9.45288602	      9.52460128	      0.76449606	     -2.07200186	     -4.96830785	    -14.32921503	     -7.26460685	     11.57192295	     -0.19076718	     -2.63656878	      0.82432487	     -1.11516440
      0.03000000	      2.43359732	      3.41682891	    176.86495834	      0.09689257	      1.01698900	      0.93681762	     -0.05117069	      1.45719365	     -6.48593525	     -9.41084507	      9.52134956	      0.79408745	     -2.04429884	     -4.92932697	    -14.32365698	     -7.29384354	     11.58473392	     -0.19798347	     -2.63844281	      0.79239947	     -1.12634495
      0.04000000	      2.47703550	      3.38393745	    176.91012538	      0.09690185	      1.01691899	      0.93716242	     -0.01645441	      1.39993524	     -6.53602187	     -9.39373520	      9.53647350	      0.90224712	     -1.95489814	     -4.88714824	    -14.28012736	     -7.35114154	     11.62085909	     -0.22013377	     -2.60947378	      0.75923566	     -1.19119910
      0.05000000	      2.56623184	      3.37716068	    176.96572349	      0.09696105	      1.01677962	      0.93751822	      0.06663385	      1.37349580	     -6.59580817	     -9.37374670	      9.56171813	      1.04149374	     -1.77973025	     -4.88583126	    -14.21250383	     -7.47715109	     11.67149145	     -0.25279147	     -2.53805866	      0.75000385	     -1.23331810
      0.06000000	      2.65672795	      3.36489556	    177.03015839	      0.09702538	      1.01663548	      0.93792334	      0.14613834	      1.33906854	     -6.65412980	     -9.34435980	      9.57131418	      1.14747567	     -1.57707299	     -4.88166731	    -14.14259331	     -7.64896380	     11.74867904	     -0.28433379	     -2.46968451	      0.73737489	     -1.29390032
      0.07000000	      2.76436692	      3.35312994	    177.10739943	      0.09709180	      1.01646887	      0.93837849	      0.24558057	      1.30336033	     -6.72037154	     -9.32145247	      9.58529799	      1.26455337	     -1.32256146	     -4.88299052	    -14.05123528	     -7.88074790	     11.83873406	     -0.32290200	     -2.38361210	      0.72768913	     -1.36629593
      0.08000000	      2.87483425	      3.33832411	    177.18960920	      0.09714966	      1.01629705	      0.93887878	      0.35001458	      1.26118741	     -6.78730926	     -9.30417682	      9.60275564	      1.38746174	     -1.03849845	     -4.88310190	    -13.94787868	     -8.16097313	     11.93735857	     -0.37057341	     -2.29702890	      0.71780141	     -1.44407666
      0.09000000	      2.99566122	      3.32207416	    177.27193177	      0.09718952	      1.01611405	      0.93942063	      0.47464873	      1.21384707	     -6.84613934	     -9.30963097	      9.62984182	      1.53333138	     -0.71907496	     -4.88284127	    -13.82670093	     -8.48828733	     12.02760528	     -0.43474250	     -2.19675069	      0.71130489	     -1.52481224
      0.10000000	      3.09800891	      3.30366071	    177.36212850	      0.09718185	      1.01595371	      0.94002739	      0.57606950	      1.15945778	     -6.92247024	     -9.31331476	      9.65430002	      1.66496096	     -0.40225441	     -4.87693531	    -13.69586581	     -8.84934146	     12.14155495	     -0.50845834	     -2.11643965	      0.70534260	     -1.60550302
      0.11000000	      3.19309106	      3.28380085	    177.45603186	      0.09713776	      1.01579922	      0.94069895	      0.67586678	      1.09839382	     -6.99984749	     -9.33429732	      9.68452357	      1.79644407	     -0.08127921	     -4.86512175	    -13.55746870	     -9.23343578	     12.25955804	     -0.59472572	     -2.04430849	      0.70287073	     -1.68264132
      0.12000000	      3.28319278	      3.26491565	    177.55100100	      0.09705263	      1.01564146	      0.94142866	      0.78050150	      1.03326662	     -7.07935962	     -9.38020773	      9.72418373	      1.93150316	      0.23826008	     -4.84891729	    -13.41057920	     -9.62839453	     12.37725066	     -0.69540000	     -1.97688198	      0.70537815	     -1.75698472
      0.13000000	      3.36310203	      3.24693850	    177.64842156	      0.09694072	      1.01548725	      0.94222944	      0.88866204	      0.96294524	     -7.15836292	     -9.45793526	      9.77462880	      2.06348279	      0.54367219	     -4.82579284	    -13.25914608	    -10.01812773	     12.49209659	     -0.80644055	     -1.92503123	      0.71348703	     -1.82589428
      0.14000000	      3.43188110	      3.22911534	    177.74665609	      0.09680297	      1.01533332	      0.94310004	      1.00330053	      0.88617304	     -7.23766871	     -9.57415748	      9.83905043	      2.18916155	      0.82549611	     -4.79402482	    -13.10647164	    -10.38830381	     12.60258205	     -0.92391551	     -1.89040600	      0.72552195	     -1.88738369
      0.15000000	      3.47185785	      3.20753258	    177.84489413	      0.09662783	      1.01519943	      0.94404081	      1.10277167	      0.79828877	     -7.32755488	     -9.72358392	      9.92821243	      2.28361149	      1.05778400	     -4.74864873	    -12.96665033	    -10.72802571	     12.72694595	     -1.02867741	     -1.89431483	      0.73420897	     -1.92643557
      0.16000000	      3.53190289	      3.18386739	    177.93926880	      0.09646107	      1.01502425	      0.94504780	      1.26438555	      0.70078688	     -7.39090235	     -9.95134456	     10.02305902	      2.41021130	      1.28756141	     -4.69155459	    -12.81459488	    -11.02336070	     12.80754804	     -1.15501916	     -1.88210095	      0.74810954	     -1.98347579
      0.17000000	      3.51514012	      3.15316761	    178.01698223	      0.09621728	      1.01492771	      0.94609506	      1.35944987	      0.58856593	     -7.45053658	    -10.21228124	     10.13892567	      2.45199265	      1.39647845	     -4.61668911	    -12.72200492	    -11.26213731	     12.93866933	     -1.22455006	     -1.96270509	      0.75172294	     -1.99642801
      0.18000000	      3.57220308	      3.09971148	    178.11444138	      0.09598407	      1.01470725	      0.94724186	      1.57796169	      0.44365688	     -7.51738139	    -10.56166559	     10.30790958	      2.56894056	      1.57065814	     -4.50970283	    -12.56773938	    -11.46804278	     12.98969871	     -1.33611532	     -1.95971907	      0.73419503	     -2.04206859
      0.19000000	      3.58964031	      3.04334885	    178.18771042	      0.09568856	      1.01451835	      0.94840750	      1.78808322	      0.28834122	     -7.56850089	    -10.97530465	     10.47780992	      2.66385359	      1.66367029	     -4.39155395	    -12.45452632	    -11.61916954	     13.06690695	     -1.42661946	     -2.00539493	      0.71030839	     -2.03328011
      0.20000000	      3.60040607	      2.96250706	    178.25824843	      0.09533684	      1.01430309	      0.94964671	      2.03520197	      0.09628028	     -7.61106580	    -11.47772741	     10.68473704	      2.74360340	      1.72165221	     -4.23849575	    -12.35042398	    -11.72636424	     13.14084352	     -1.49414314	     -2.05664141	      0.66472236	     -2.03815489
      0.21000000	      3.60083895	      2.85789244	    178.32478811	      0.09495399	      1.01406499	      0.95093840	      2.32188177	     -0.13042355	     -7.64169649	    -12.07632415	     10.92666968	      2.80436891	      1.75001284	     -4.05437486	    -12.25474644	    -11.80495088	     13.21851777	     -1.54029034	     -2.12273149	      0.59229307	     -2.04315560
      0.22000000	      3.59180207	      2.73030659	    178.38463312	      0.09449938	      1.01379483	      0.95227522	      2.65370362	     -0.39230394	     -7.67205022	    -12.78335335	     11.20700376	      2.84519886	      1.74014689	     -3.83940953	    -12.17705677	    -11.84097183	     13.32387804	     -1.57356482	     -2.19437526	      0.49385226	     -2.05389243
      0.23000000	      3.63603613	      2.55649334	    178.44105487	      0.09408759	      1.01341342	      0.95365233	      3.12253306	     -0.71313265	     -7.67301981	    -13.63371361	     11.50927254	      2.95671199	      1.79516463	     -3.57308557	    -12.06184272	    -11.88898249	     13.35404983	     -1.60799284	     -2.21121831	      0.33818386	     -2.05750044
      0.24000000	      3.66344699	      2.35263447	    178.48564199	      0.09361468	      1.01299540	      0.95506693	      3.63873814	     -1.07710103	     -7.66148624	    -14.60582496	     11.84818399	      3.04533451	      1.81147530	     -3.26979179	    -11.97309974	    -11.90830144	     13.42563637	     -1.63700719	     -2.24444145	      0.15067211	     -2.07032046
      0.25000000	      3.69533592	      2.10383016	    178.51947854	      0.09314067	      1.01250945	      0.95651240	      4.24048529	     -1.49817400	     -7.61903386	    -15.72228945	     12.21091947	      3.13395004	      1.82750617	     -2.91434977	    -11.88751781	    -11.91993997	     13.49345629	     -1.66469234	     -2.27738309	     -0.08961209	     -2.08781041
      0.26000000	      3.74676454	      1.81627544	    178.54166919	      0.09266700	      1.01192943	      0.95799588	      4.94506381	     -1.96935859	     -7.54154585	    -16.98195264	     12.57613872	      3.25435546	      1.85932130	     -2.51312859	    -11.80908833	    -11.92384710	     13.57074089	     -1.70636850	     -2.29187022	     -0.37131370	     -2.10781456
      0.27000000	      3.78949226	      1.48437030	    178.55359275	      0.09218868	      1.01128931	      0.95949379	      5.71847274	     -2.49246765	     -7.40922972	    -18.37905402	     12.93817399	      3.37742944	      1.87918669	     -2.06206772	    -11.73962867	    -11.92521920	     13.64761600	     -1.75640295	     -2.32219950	     -0.70736512	     -2.13824730
      0.28000000	      3.82602742	      1.11770153	    178.55675707	      0.09169788	      1.01058980	      0.96099834	      6.56091217	     -3.05340373	     -7.21552555	    -19.90914113	     13.27067035	      3.51565068	      1.88654646	     -1.57133746	    -11.68094721	    -11.91733306	     13.72443459	     -1.81739226	     -2.36433890	     -1.08675463	     -2.17638233
      0.29000000	      3.81918359	      0.72010614	    178.55206472	      0.09117114	      1.00989181	      0.96249391	      7.42349154	     -3.64359089	     -6.95489091	    -21.55644716	     13.57033406	      3.61980845	      1.83389487	     -1.04430408	    -11.63809597	    -11.88788468	     13.77828919	     -1.86693530	     -2.46407820	     -1.50767768	     -2.22301697
      0.30000000	      3.82027200	      0.31586824	    178.53626841	      0.09062419	      1.00912937	      0.96397311	      8.36737979	     -4.23371175	     -6.62423046	    -23.33006522	     13.77231708	      3.77953714	      1.78273292	     -0.50994581	    -11.61305557	    -11.84913095	     13.86266342	     -1.93931106	     -2.56041859	     -1.93822641	     -2.27446966
      0.31000000	      3.84728244	     -0.06579074	    178.50855868	      0.09006589	      1.00830822	      0.96540238	      9.40874722	     -4.78367264	     -6.21234012	    -25.22060496	     13.82573400	      4.04654934	      1.75552253	     -0.00320827	    -11.60408735	    -11.80858350	     13.97740454	     -2.05101319	     -2.63459540	     -2.34632681	     -2.33484835
      0.32000000	      3.77214271	     -0.45211310	    178.46076855	      0.08944365	      1.00762929	      0.96675844	     10.40166102	     -5.32391495	     -5.75310507	    -27.21127537	     13.79223036	      4.18950895	      1.59500911	      0.51008859	    -11.63631795	    -11.72940319	     14.05036339	     -2.11135193	     -2.83860150	     -2.76916828	     -2.39136112
